<?xml version="1.0" standalone="no"?>
<!DOCTYPE svg PUBLIC "-//W3C//DTD SVG 20010904//EN"
 "http://www.w3.org/TR/2001/REC-SVG-20010904/DTD/svg10.dtd">
<svg version="1.0" xmlns="http://www.w3.org/2000/svg"
 width="874.000000pt" height="698.000000pt" viewBox="0 0 874.000000 698.000000"
 preserveAspectRatio="xMidYMid meet" >

<g transform="translate(0.000000,698.000000) scale(0.100000,-0.100000)"
fill="#FA7CD7" stroke="none">
<path d="M5290 5273 c-71 -12 -126 -39 -182 -89 -33 -30 -64 -54 -69 -54 -5 0
-63 -52 -130 -116 -241 -229 -497 -359 -852 -433 -223 -47 -339 -57 -459 -42
-238 29 -471 112 -645 227 -99 65 -261 220 -318 304 l-37 55 7 -40 c10 -60 77
-217 131 -305 91 -152 237 -285 390 -359 l70 -33 -4 -162 c-5 -200 11 -300 70
-425 70 -151 117 -274 124 -331 3 -30 13 -65 21 -78 13 -21 20 -23 89 -20 l76
3 29 112 c39 150 94 272 187 414 42 64 112 181 156 259 43 78 82 138 86 133
10 -9 90 -271 90 -291 0 -8 7 -11 19 -7 54 17 198 35 281 35 82 0 226 -18 279
-35 13 -4 22 15 44 93 47 162 63 207 73 206 5 -1 52 -80 106 -175 53 -96 108
-187 121 -204 90 -113 181 -329 222 -527 4 -23 11 -28 34 -28 54 0 92 13 120
40 27 27 27 31 39 216 23 363 73 704 141 974 l27 105 81 -4 c140 -6 240 37
342 144 38 40 51 61 51 84 0 50 -40 73 -206 115 -186 48 -277 77 -371 121 -50
23 -75 30 -77 22 -2 -7 -9 -32 -16 -57 -24 -89 -134 -281 -150 -263 -4 4 -29
49 -55 98 l-47 90 50 -51 51 -51 20 21 c51 54 96 209 80 270 -12 43 -26 50
-89 39z m268 -195 c32 -32 -4 -87 -48 -73 -25 8 -37 50 -20 70 15 18 51 20 68
3z"/>
<path d="M4147 3798 c-34 -12 -46 -51 -26 -87 20 -36 80 -42 103 -9 40 57 -9
119 -77 96z"/>
<path d="M4642 3799 c-43 -16 -48 -85 -8 -111 20 -14 63 -8 79 10 18 19 22 59
9 79 -12 19 -55 31 -80 22z"/>
<path d="M4368 3623 c-40 -6 -36 -35 9 -72 21 -17 41 -31 45 -31 17 0 91 81
82 90 -11 11 -99 20 -136 13z"/>
<path d="M4139 3569 c114 -54 124 -57 119 -32 -2 11 -35 27 -103 50 -54 18
-104 33 -110 32 -5 0 37 -23 94 -50z"/>
<path d="M4685 3587 c-69 -23 -101 -38 -103 -50 -2 -9 2 -17 10 -17 16 1 217
98 203 99 -5 0 -55 -14 -110 -32z"/>
<path d="M4140 3524 c-8 -1 -60 -6 -115 -11 l-100 -7 65 -7 c36 -4 93 -7 128
-8 54 -1 63 1 60 16 -3 18 -14 22 -38 17z"/>
<path d="M4670 3522 c-5 -2 -10 -10 -10 -18 0 -11 15 -14 63 -13 86 2 203 15
157 18 -19 2 -72 6 -117 9 -45 4 -87 6 -93 4z"/>
<path d="M4135 3440 c-55 -27 -98 -49 -95 -49 13 -2 204 59 212 67 10 10 3 33
-10 31 -4 0 -52 -22 -107 -49z"/>
<path d="M4585 3480 c-4 -7 -3 -16 2 -21 11 -11 174 -60 187 -56 7 2 -102 56
-170 84 -7 2 -15 -1 -19 -7z"/>
<path d="M4960 3091 c0 -274 0 -281 20 -281 19 0 20 7 20 150 l0 150 45 0 c33
0 45 4 45 15 0 11 -12 15 -45 15 l-44 0 -3 112 c-3 98 -5 113 -20 116 -17 3
-18 -15 -18 -277z"/>
<path d="M3348 3248 l-3 -113 -42 -3 -43 -3 0 110 c0 104 -1 111 -20 111 -19
0 -20 -7 -20 -255 0 -248 1 -255 20 -255 19 0 20 7 20 131 l0 130 43 -3 42 -3
3 -142 c2 -118 5 -143 17 -143 16 0 16 -3 16 305 0 252 0 245 -16 245 -12 0
-15 -22 -17 -112z"/>
<path d="M4000 3085 l0 -275 25 0 25 0 0 150 0 150 45 0 c33 0 45 4 45 15 0
11 -12 15 -45 15 l-45 0 0 110 0 110 -25 0 -25 0 0 -275z"/>
<path d="M5340 3315 c0 -12 27 -15 163 -17 l162 -3 3 -52 3 -53 -165 0 -166 0
0 -80 0 -80 80 0 80 0 0 -60 0 -60 -115 0 c-96 0 -115 -3 -115 -15 0 -17 -9
-16 215 -16 300 0 295 0 295 16 0 12 -19 15 -115 15 l-115 0 0 60 0 60 90 0
c73 0 90 3 90 15 0 13 -26 15 -175 15 l-175 0 0 50 0 50 165 0 165 0 0 85 0
85 -185 0 c-156 0 -185 -2 -185 -15z"/>
<path d="M4590 3135 l0 -185 130 0 130 0 0 185 c0 177 -1 185 -20 185 -17 0
-19 -8 -22 -72 l-3 -73 -87 -3 -88 -3 0 76 c0 68 -2 75 -20 75 -19 0 -20 -7
-20 -185z m215 -75 l0 -75 -85 0 -85 0 -3 64 c-4 93 -6 92 90 89 l83 -3 0 -75z"/>
<path d="M3650 3285 c0 -12 18 -15 100 -15 l100 0 0 -32 c-1 -75 -76 -185
-166 -245 -30 -20 -54 -40 -54 -45 0 -23 35 -17 84 15 90 60 153 152 175 255
18 88 26 82 -114 82 -104 0 -125 -2 -125 -15z"/>
<path d="M2940 3125 l0 -165 93 0 c106 0 137 6 137 27 0 12 -17 14 -92 11
l-93 -3 -3 148 c-2 139 -4 147 -22 147 -19 0 -20 -7 -20 -165z"/>
<path d="M3302 2368 c3 -144 5 -163 20 -166 13 -3 17 6 20 40 3 43 3 43 46 46
52 4 61 32 10 32 -49 0 -60 12 -56 56 3 38 4 39 46 42 28 2 42 8 42 17 0 9
-14 15 -42 17 -42 3 -43 4 -46 41 -3 29 -7 37 -23 37 -19 0 -19 -7 -17 -162z"/>
<path d="M4010 2364 c0 -152 1 -165 18 -162 12 2 18 15 20 46 3 42 3 42 43 42
53 0 55 27 2 32 -38 3 -38 3 -38 48 0 45 0 45 38 48 53 5 51 32 -3 32 l-40 0
0 40 c0 33 -3 40 -20 40 -19 0 -20 -7 -20 -166z"/>
<path d="M4988 2463 l-3 -68 -70 0 c-68 0 -70 1 -71 25 -3 77 9 70 -124 70
l-120 0 0 -120 0 -120 119 0 120 0 3 48 3 47 70 0 70 0 3 -73 c2 -63 5 -73 20
-70 15 3 17 22 20 166 2 156 2 162 -17 162 -18 0 -20 -8 -23 -67z m-188 -23
c6 -11 10 -51 8 -88 l-3 -67 -82 -3 -83 -3 0 84 c0 46 3 87 7 90 3 4 37 7 74
7 58 0 70 -3 79 -20z"/>
<path d="M5690 2460 l0 -70 -69 0 -70 0 -3 48 -3 47 -122 3 -123 3 0 -121 0
-120 125 0 125 0 0 50 0 50 70 0 69 0 3 -72 c2 -60 6 -73 21 -76 16 -3 17 10
17 162 0 159 -1 166 -20 166 -18 0 -20 -7 -20 -70z m-192 -9 c9 -5 12 -30 10
-87 l-3 -79 -82 -3 -83 -3 0 85 c0 58 4 86 13 89 20 9 131 7 145 -2z"/>
<path d="M2942 2378 l3 -123 104 3 c141 5 185 13 189 36 4 17 0 18 -34 12 -22
-4 -81 -9 -131 -13 l-93 -6 0 107 c0 100 -1 106 -20 106 -20 0 -20 -5 -18
-122z"/>
<path d="M3650 2380 c0 -96 3 -122 15 -126 18 -7 253 14 271 24 7 4 10 13 5
20 -6 10 -23 10 -77 2 -38 -5 -92 -10 -121 -10 l-52 0 -3 102 c-3 89 -5 103
-20 106 -16 3 -18 -8 -18 -118z"/>
<path d="M3087 2176 c-65 -18 -97 -50 -97 -96 0 -68 60 -100 185 -100 138 1
213 71 159 149 -34 48 -159 72 -247 47z m185 -42 c32 -17 46 -57 27 -80 -38
-46 -162 -60 -229 -26 -42 20 -53 67 -23 94 42 38 163 44 225 12z"/>
<path d="M3800 2180 c-121 -26 -149 -127 -50 -178 40 -21 56 -23 137 -20 74 3
98 8 120 24 67 50 62 118 -10 153 -51 24 -136 33 -197 21z m135 -31 c54 -14
78 -38 73 -76 -4 -40 -55 -63 -136 -63 -184 0 -188 141 -4 149 13 1 43 -4 67
-10z"/>
<path d="M4755 2166 c-77 -22 -112 -75 -84 -128 31 -58 212 -80 299 -35 79 39
78 111 -1 150 -50 24 -152 30 -214 13z m161 -27 c28 -7 51 -21 60 -35 38 -58
-26 -98 -146 -92 -66 3 -82 7 -104 27 -14 14 -26 30 -26 36 0 22 26 46 65 60
49 17 92 18 151 4z"/>
<path d="M5455 2166 c-109 -31 -127 -123 -33 -166 48 -22 168 -27 227 -10 65
18 96 69 75 125 -19 48 -174 77 -269 51z m205 -44 c17 -13 25 -29 25 -48 0
-42 -49 -64 -140 -64 -105 0 -161 43 -126 98 27 43 189 52 241 14z"/>
</g>
</svg>
